<svg xmlns="http://www.w3.org/2000/svg" viewBox="0 0 120 66"><defs><style>.a,.b{fill:#fff;}.b{font-size:9px;font-family:Montserrat-Regular, Montserrat;}.c{letter-spacing:0em;}.d{letter-spacing:-0.01em;}.e,.f{fill:none;stroke:#fff;stroke-miterlimit:10;}.e{stroke-width:0.5px;}.f{stroke-width:0.25px;}</style></defs><title>Untitled-2</title><path class="a" d="M113.25,1A5.76,5.76,0,0,1,119,6.75v52.5A5.76,5.76,0,0,1,113.25,65H6.75A5.76,5.76,0,0,1,1,59.25V6.75A5.76,5.76,0,0,1,6.75,1h106.5m0-1H6.75A6.75,6.75,0,0,0,0,6.75v52.5A6.75,6.75,0,0,0,6.75,66h106.5A6.75,6.75,0,0,0,120,59.25V6.75A6.75,6.75,0,0,0,113.25,0Z"/><text class="b" transform="translate(8 11.68)">имя <tspan class="c" x="21.11" y="0">б</tspan><tspan x="27.02" y="0">ан</tspan><tspan class="d" x="38.34" y="0">к</tspan><tspan x="43.48" y="0">а</tspan></text><rect class="e" x="7.75" y="17" width="20.5" height="14" rx="3.31"/><rect class="f" x="8" y="18" width="8" height="12" rx="2.13"/><rect class="f" x="20" y="18" width="8" height="12" rx="2.13"/><polyline class="f" points="16 21.74 20 21.74 20 25.94 16 25.94"/></svg>