<svg xmlns="http://www.w3.org/2000/svg" viewBox="0 0 335 78.5"><defs><style>.a{fill:#fff;stroke:#000;stroke-miterlimit:10;}.b{fill:#e6e6e6;}</style></defs><title>botton_1</title><path class="a" d="M285.37,98" transform="translate(-1 0)"/><path class="a" d="M265.41,90.09" transform="translate(-1 0)"/><path class="a" d="M128,35.64" transform="translate(-1 0)"/><path class="a" d="M118.64,32" transform="translate(-1 0)"/><path class="a" d="M120.43,28.17" transform="translate(-1 0)"/><path class="a" d="M120.38,27.37" transform="translate(-1 0)"/><path class="a" d="M107.08,21.13" transform="translate(-1 0)"/><path class="a" d="M99.19,17.32" transform="translate(-1 0)"/><path class="a" d="M85,13.7" transform="translate(-1 0)"/><path class="a" d="M285.5,97.5" transform="translate(-1 0)"/><path class="a" d="M5.24,4.1" transform="translate(-1 0)"/><polygon class="b" points="0 0 335 0 335 78 133.37 78 107.6 78.5 100.18 78.5 86.5 78.5 0 0"/></svg>