<svg xmlns="http://www.w3.org/2000/svg" viewBox="0 0 335 78.5"><defs><style>.a{fill:#fff;stroke:#000;stroke-miterlimit:10;}.b{fill:#cf0;}</style></defs><title>botton_2</title><path class="a" d="M285.37,98" transform="translate(-1 0)"/><path class="a" d="M265.41,90.09" transform="translate(-1 0)"/><path class="a" d="M128,35.64" transform="translate(-1 0)"/><path class="a" d="M118.64,32" transform="translate(-1 0)"/><path class="a" d="M120.43,28.17" transform="translate(-1 0)"/><path class="a" d="M120.38,27.37" transform="translate(-1 0)"/><path class="a" d="M107.08,21.13" transform="translate(-1 0)"/><path class="a" d="M99.19,17.32" transform="translate(-1 0)"/><path class="a" d="M85,13.7" transform="translate(-1 0)"/><path class="a" d="M285.5,97.5" transform="translate(-1 0)"/><path class="a" d="M5.24,4.1" transform="translate(-1 0)"/><polygon class="b" points="335 78.5 0 78.5 0 0.5 201.63 0.5 227.4 0 234.82 0 248.5 0 335 78.5"/></svg>