<?xml version="1.0" encoding="iso-8859-1"?>
<!-- Generator: Adobe Illustrator 19.0.0, SVG Export Plug-In . SVG Version: 6.00 Build 0)  -->
<svg xmlns="http://www.w3.org/2000/svg" xmlns:xlink="http://www.w3.org/1999/xlink" version="1.1" id="Layer_1" x="0px" y="0px" viewBox="0 0 512 512" style="enable-background:new 0 0 512 512;" xml:space="preserve" width="512px" height="512px">
<g>
	<g>
		<path d="M330.176,0H181.824c-17.92,0-32.491,14.571-32.491,32.491v63.018c0,17.92,14.571,32.491,32.491,32.491h148.352    c17.92,0,32.491-14.571,32.491-32.49V32.491C362.667,14.571,348.096,0,330.176,0z M320,85.333H192V42.667h128V85.333z" fill="#FFFFFF"/>
	</g>
</g>
<g>
	<g>
		<path d="M422.72,42.667H320v42.667H192V42.667H89.28c-25.707,0-46.613,20.907-46.613,46.613v376.107    C42.667,491.093,63.573,512,89.28,512h333.44c25.707,0,46.613-20.907,46.613-46.613V89.28    C469.333,63.573,448.427,42.667,422.72,42.667z M128,170.667h85.333V256H128V170.667z M356.416,335.083l-85.333,85.333    c-4.16,4.16-9.621,6.251-15.083,6.251c-5.462,0-10.923-2.091-15.083-6.251l-42.667-42.667c-8.341-8.341-8.341-21.824,0-30.165    s21.824-8.341,30.165,0L256,375.168l70.251-70.251c8.341-8.341,21.824-8.341,30.165,0    C364.757,313.259,364.757,326.741,356.416,335.083z M362.667,234.667h-85.333c-11.776,0-21.333-9.557-21.333-21.333    c0-11.776,9.556-21.334,21.332-21.334h85.333c11.776,0,21.333,9.557,21.333,21.333S374.443,234.667,362.667,234.667z" fill="#FFFFFF"/>
	</g>
</g>
<g>
</g>
<g>
</g>
<g>
</g>
<g>
</g>
<g>
</g>
<g>
</g>
<g>
</g>
<g>
</g>
<g>
</g>
<g>
</g>
<g>
</g>
<g>
</g>
<g>
</g>
<g>
</g>
<g>
</g>
</svg>
