<?xml version="1.0" encoding="utf-8"?>
<!-- Generator: Adobe Illustrator 23.0.3, SVG Export Plug-In . SVG Version: 6.00 Build 0)  -->
<svg version="1.1" id="Capa_1" xmlns="http://www.w3.org/2000/svg" xmlns:xlink="http://www.w3.org/1999/xlink" x="0px" y="0px"
	 viewBox="0 0 512 512" style="enable-background:new 0 0 512 512;" xml:space="preserve">
<style type="text/css">
	.st0{fill:#FFFFFF;}
</style>
<circle class="st0" cx="256" cy="256" r="256"/>
<g>
	<g>
		<g>
			<path d="M431.9,220.8c0-0.4-0.1-0.8-0.2-1.2c-0.1-0.4-0.2-0.7-0.3-1c-0.2-0.3-0.4-0.6-0.6-0.9c-0.2-0.3-0.5-0.6-0.8-0.9
				c-0.1-0.1-0.1-0.2-0.2-0.3l-57.4-44.6v-46.2c0-9.9-8-17.9-17.9-17.9h-64.7l-25.9-20.1c-6.4-5-15.4-5-21.8,0l-25.9,20.1h-64.7
				c-9.9,0-17.9,8-17.9,17.9v46.2l-57.4,44.6c-0.1,0.1-0.1,0.2-0.2,0.3c-0.3,0.3-0.6,0.6-0.8,0.9c-0.2,0.3-0.4,0.6-0.6,0.9
				c-0.1,0.3-0.3,0.7-0.3,1c-0.1,0.4-0.2,0.8-0.2,1.2c0,0.1-0.1,0.2-0.1,0.4v202.9c0,3.8,1.2,7.5,3.5,10.5c0,0.1,0,0.1,0.1,0.2
				c0,0,0.1,0.1,0.2,0.2c3.4,4.4,8.6,7,14.1,7h322.2c5.6,0,10.8-2.6,14.2-7.1c0-0.1,0.1-0.1,0.2-0.1c0-0.1,0-0.1,0.1-0.2
				c2.3-3,3.5-6.7,3.5-10.5V221.2C432,221.1,431.9,221,431.9,220.8z M249.4,97.2c2.1-1.7,5-1.7,7.1,0l13.8,10.7h-34.6L249.4,97.2z
				 M93.4,430l156-121.2c2.1-1.7,5-1.7,7.1,0L412.6,430H93.4z M420,420.7L263.9,299.4c-6.4-5-15.4-5-21.8,0L85.9,420.7V230.3
				l97.8,75.9c2.6,2,6.4,1.5,8.4-1.1s1.5-6.4-1.1-8.4l-99.3-77.1l42-32.6v46.1c0,3.3,2.7,6,6,6c3.3,0,6-2.7,6-6V125.7
				c0-3.3,2.7-6,6-6h202.9c3.3,0,6,2.7,6,6v107.4c0,3.3,2.7,6,6,6s6-2.7,6-6V187l42,32.6l-99.5,77.3c-1.7,1.3-2.6,3.4-2.3,5.5
				c0.3,2.1,1.7,3.9,3.7,4.7c2,0.8,4.3,0.5,5.9-0.9l97.9-76.1L420,420.7L420,420.7z"/>
			<path d="M324.6,227.2v-23.9c0-39.5-32.1-71.6-71.6-71.6s-71.6,32.1-71.6,71.6s32.1,71.6,71.6,71.6c3.3,0,6-2.7,6-6s-2.7-6-6-6
				c-33,0-59.7-26.7-59.7-59.7s26.7-59.7,59.7-59.7s59.7,26.7,59.7,59.7v23.9c0,6.6-5.3,11.9-11.9,11.9c-6.6,0-11.9-5.3-11.9-11.9
				v-23.9c0-3.3-2.7-6-6-6c-3.3,0-6,2.7-6,6c0,13.2-10.7,23.9-23.9,23.9c-13.2,0-23.9-10.7-23.9-23.9s10.7-23.9,23.9-23.9
				c3.3,0,6-2.7,6-6c0-3.3-2.7-6-6-6c-16,0-30.1,10.6-34.5,26s2,31.9,15.6,40.3c13.6,8.4,31.2,6.7,43-4.1
				c1.3,12.6,12.3,22,24.9,21.3C314.7,250.3,324.6,239.9,324.6,227.2z"/>
		</g>
	</g>
</g>
</svg>
