<?xml version="1.0"?>
<svg xmlns="http://www.w3.org/2000/svg" height="512px" viewBox="-40 0 512 512" width="512px"><g fill-rule="evenodd"><path d="m239.933594 64.265625c-61.425782 0-111.402344 49.976563-111.402344 111.402344s49.976562 111.398437 111.402344 111.398437c61.425781 0 111.398437-49.972656 111.398437-111.398437s-49.972656-111.402344-111.398437-111.402344zm0 192.800781c-44.882813 0-81.402344-36.515625-81.402344-81.398437 0-44.886719 36.519531-81.402344 81.402344-81.402344 44.882812 0 81.398437 36.515625 81.398437 81.402344 0 44.882812-36.515625 81.398437-81.398437 81.398437zm0 0" fill="#FFFFFF"/><path d="m273.277344 142.34375c-5.855469-5.859375-15.351563-5.863281-21.214844-.003906l-12.128906 12.121094-12.132813-12.125c-5.859375-5.855469-15.355469-5.851563-21.210937.007812-5.855469 5.859375-5.855469 15.355469.007812 21.214844l12.113282 12.105468-12.113282 12.109376c-5.863281 5.855468-5.863281 15.355468-.007812 21.210937 5.855468 5.859375 15.351562 5.867187 21.210937.007813l12.132813-12.121094 12.128906 12.121094c5.859375 5.855468 15.359375 5.855468 21.214844-.007813 5.855468-5.859375 5.851562-15.355469-.007813-21.210937l-12.117187-12.109376 12.117187-12.105468c5.859375-5.855469 5.863281-15.355469.007813-21.214844zm0 0" fill="#FFFFFF"/><path d="m431.664062 209.632812c0-191.261718-167.960937-209.632812-196.40625-209.632812-108.625 0-179.023437 94.339844-179.023437 167.898438v26.722656c-8.914063 11.457031-34.382813 44.203125-46.503906 59.789062-6.273438 8.066406-9.730469 18.136719-9.730469 28.355469 0 19.183594 11.507812 36.1875 29.328125 43.324219l13.988281 5.59375 22.660156 63.445312c11.234376 31.464844 41.234376 52.605469 74.648438 52.605469h23.328125l13.226563 52.90625c1.671874 6.675781 7.671874 11.359375 14.554687 11.359375h192.796875c4.707031 0 9.144531-2.210938 11.976562-5.96875 2.835938-3.753906 3.742188-8.625 2.449219-13.152344l-30.636719-107.230468 49.746094-111.933594c9.023438-20.308594 13.597656-41.867188 13.597656-64.082032zm-41.011718 51.898438-51.960938 116.910156c-1.425781 3.214844-1.679687 6.828125-.714844 10.210938l26.671876 93.347656h-161.203126l-13.226562-52.90625c-1.667969-6.675781-7.667969-11.359375-14.550781-11.359375h-35.042969c-20.769531 0-39.414062-13.140625-46.398438-32.695313l-24.933593-69.816406c-1.445313-4.050781-4.5625-7.289062-8.558594-8.882812l-20.261719-8.105469c-10.390625-4.160156-13.640625-16.953125-7.0625-25.402344 12.648438-16.269531 39.820313-51.203125 47.570313-61.167969 3.386719-4.359374 5.253906-9.796874 5.253906-15.3125v-28.453124c0-40.292969 42.6875-137.898438 149.039063-137.898438 23.5625 0 166.390624 14.332031 166.390624 179.632812 0 17.992188-3.703124 35.453126-11.011718 51.898438zm0 0" fill="#FFFFFF"/></g></svg>
