<svg xmlns="http://www.w3.org/2000/svg" viewBox="0 0 210.99 256"><title>hold_black_2</title><path d="M209.07,117.52a10.19,10.19,0,0,0-9.06-4.83H200c-7.4,0-16.31,2.89-23.25,7.47a76.54,76.54,0,0,0-23.52,25.41,9.35,9.35,0,0,1-6.46,4.61c0-.58,0-1.25,0-1.87,0-1.34,0-2.94-.05-4.7V47.68a17.78,17.78,0,0,0-35.54,0v67.17a2.22,2.22,0,0,1-4.44,0V17.34a17.78,17.78,0,0,0-35.54,0v97.51a2.23,2.23,0,0,1-4.45,0v-78a15.55,15.55,0,0,0-31.1,0v86.68a2.22,2.22,0,0,1-4.44,0V69.35A15.38,15.38,0,0,0,15.56,54.18,15.37,15.37,0,0,0,0,69.35V187.22C4.32,247.83,42.42,256,79.13,256c30.42,0,57.73-14.72,71.2-38.24,1.74-2.73,6.42-9.93,12-18.44,13.9-21.3,25.54-39.19,27.26-42.37,3.83-7.08,8.11-12.61,12.37-16,3.85-3.07,6.2-7,8.12-10.42C211.05,128.74,211.91,122.16,209.07,117.52Z" transform="translate(-0.01)"/></svg>