<?xml version="1.0"?>
<svg xmlns="http://www.w3.org/2000/svg" height="512px" version="1.1" viewBox="0 -50 599.77684 599" width="512px">
<g id="surface1">
<path d="M 599.777344 10.222656 C 599.765625 9.234375 599.617188 8.25 599.316406 7.304688 C 599.269531 7.144531 599.15625 7.027344 599.097656 6.875 C 598.9375 6.496094 598.75 6.128906 598.535156 5.777344 C 598.1875 5.082031 597.746094 4.433594 597.238281 3.84375 C 596.964844 3.53125 596.667969 3.234375 596.351562 2.957031 C 595.742188 2.433594 595.070312 1.984375 594.347656 1.628906 C 594.027344 1.433594 593.695312 1.261719 593.351562 1.105469 C 592.214844 0.648438 591.003906 0.402344 589.78125 0.386719 L 9.996094 0.386719 C 8.78125 0.40625 7.582031 0.652344 6.449219 1.105469 C 6.105469 1.261719 5.773438 1.433594 5.453125 1.628906 C 4.730469 1.984375 4.0625 2.433594 3.449219 2.957031 C 3.132812 3.234375 2.835938 3.53125 2.5625 3.84375 C 2.054688 4.433594 1.617188 5.082031 1.257812 5.777344 C 1.050781 6.128906 0.863281 6.496094 0.703125 6.875 C 0.640625 7.027344 0.53125 7.144531 0.484375 7.304688 C 0.179688 8.246094 0.0195312 9.234375 0 10.222656 L 0 390.40625 C 0.0117188 391.390625 0.164062 392.375 0.464844 393.324219 C 0.464844 393.480469 0.621094 393.601562 0.683594 393.753906 C 0.84375 394.128906 1.03125 394.5 1.238281 394.851562 C 1.597656 395.542969 2.035156 396.1875 2.542969 396.777344 C 2.816406 397.097656 3.113281 397.394531 3.429688 397.667969 C 4.042969 398.195312 4.710938 398.640625 5.425781 399 C 5.753906 399.191406 6.085938 399.367188 6.429688 399.515625 C 7.566406 399.976562 8.777344 400.21875 9.996094 400.238281 L 308.566406 400.238281 C 329.707031 460.179688 386.375 500.25 449.929688 500.203125 C 513.492188 500.152344 570.09375 459.992188 591.140625 400.019531 C 591.890625 399.9375 592.621094 399.769531 593.328125 399.515625 C 594.402344 399.027344 595.410156 398.40625 596.332031 397.667969 C 596.648438 397.394531 596.945312 397.097656 597.21875 396.777344 C 597.730469 396.191406 598.167969 395.542969 598.515625 394.851562 C 598.730469 394.496094 598.917969 394.125 599.078125 393.742188 C 599.136719 393.582031 599.257812 393.460938 599.308594 393.289062 C 599.582031 392.390625 599.722656 391.457031 599.726562 390.523438 C 599.753906 390.429688 599.765625 390.335938 599.777344 390.242188 Z M 558.933594 20.382812 L 299.886719 207.957031 L 40.847656 20.382812 Z M 255.246094 200.3125 L 19.992188 370.660156 L 19.992188 29.96875 Z M 272.292969 212.65625 L 294.019531 228.394531 C 297.519531 230.933594 302.253906 230.933594 305.761719 228.394531 L 327.5 212.648438 L 356.097656 233.347656 C 312.15625 268.414062 291.621094 325.183594 302.957031 380.246094 L 40.847656 380.246094 Z M 575.003906 385.132812 C 574.847656 385.898438 574.648438 386.652344 574.410156 387.394531 C 557.972656 442.476562 507.316406 480.21875 449.832031 480.21875 C 392.355469 480.21875 341.699219 442.476562 325.261719 387.394531 C 310.769531 338.59375 326.105469 285.824219 364.5 252.390625 C 402.890625 218.960938 457.265625 211.027344 503.613281 232.09375 C 549.957031 253.160156 579.730469 299.347656 579.785156 350.257812 C 579.804688 361.683594 578.277344 373.0625 575.25 384.082031 C 575.148438 384.429688 575.070312 384.78125 575.003906 385.132812 Z M 449.832031 200.3125 C 422.976562 200.304688 396.625 207.558594 373.550781 221.308594 L 344.5625 200.3125 L 579.785156 29.96875 L 579.785156 275.773438 C 553.109375 229.164062 503.539062 200.378906 449.832031 200.3125 Z M 449.832031 200.3125 " style=" fill-rule:nonzero;fill-opacity:1;" stroke="#FFFFFF" fill="#FFFFFF"/>
<path d="M 459.828125 340.261719 L 459.828125 250.296875 L 439.835938 250.296875 L 439.835938 340.261719 L 349.871094 340.261719 L 349.871094 360.253906 L 439.835938 360.253906 L 439.835938 440.226562 L 459.828125 440.226562 L 459.828125 360.253906 L 549.796875 360.253906 L 549.796875 340.261719 Z M 459.828125 340.261719 " style=" fill-rule:nonzero;fill-opacity:1;" stroke="#FFFFFF" fill="#FFFFFF"/>
</g>
</svg>
