<?xml version="1.0" encoding="iso-8859-1"?>
<!-- Generator: Adobe Illustrator 16.0.0, SVG Export Plug-In . SVG Version: 6.00 Build 0)  -->
<!DOCTYPE svg PUBLIC "-//W3C//DTD SVG 1.1//EN" "http://www.w3.org/Graphics/SVG/1.1/DTD/svg11.dtd">
<svg xmlns="http://www.w3.org/2000/svg" xmlns:xlink="http://www.w3.org/1999/xlink" version="1.1" id="Capa_1" x="0px" y="0px" width="512px" height="512px" viewBox="0 0 79.536 79.536" style="enable-background:new 0 0 79.536 79.536;" xml:space="preserve">
<g>
	<path d="M29.974,23.999c-0.536,0-1.043-0.287-1.315-0.79c-0.391-0.732-0.117-1.633,0.616-2.024l13.559-7.265   c0.714-0.404,1.626-0.122,2.014,0.608c0.394,0.728,0.119,1.634-0.61,2.022l-13.557,7.262   C30.458,23.939,30.215,23.999,29.974,23.999z M44.848,37.006c0.394-0.725,0.119-1.631-0.61-2.019l-13.557-7.265   c-0.723-0.404-1.628-0.122-2.022,0.608c-0.391,0.728-0.117,1.633,0.616,2.019l13.559,7.268c0.217,0.119,0.461,0.182,0.698,0.182   C44.066,37.799,44.579,37.509,44.848,37.006z M48.188,25.892c0-0.821-0.673-1.497-1.491-1.497H34.82   c-0.82,0-1.494,0.676-1.494,1.497c0,0.823,0.673,1.497,1.494,1.497h11.866C47.515,27.388,48.188,26.715,48.188,25.892z    M16.92,36.261c4.8,0,8.691-3.884,8.691-8.694c0-4.808-3.886-8.701-8.691-8.701c-4.813,0-8.723,3.889-8.723,8.701   C8.202,32.377,12.106,36.261,16.92,36.261z M17.753,38.301H16.92h-0.842c-8.114,0-11.412,2.646-13.554,7.012   C1.862,46.664,0.749,57.646,0,65.802h5.955l1.367-14.136l0.43,14.136h18.336l0.43-14.136l1.367,14.136h5.955   c-0.759-8.155-1.862-19.138-2.535-20.489C29.179,40.947,25.865,38.301,17.753,38.301z M62.624,36.261   c4.785,0,8.689-3.884,8.689-8.694c0-4.808-3.899-8.701-8.689-8.701c-4.805,0-8.709,3.889-8.709,8.701   C53.915,32.377,57.809,36.261,62.624,36.261z M77.009,45.312c-2.144-4.365-5.441-7.012-13.561-7.012h-0.834h-0.829   c-8.113,0-11.428,2.646-13.566,7.012c-0.652,1.352-1.761,12.334-2.521,20.489h5.949l1.372-14.136l0.431,14.136h18.335l0.43-14.136   l1.367,14.136h5.955C78.78,57.646,77.672,46.664,77.009,45.312z" fill="#CCFF00"/>
</g>
<g>
</g>
<g>
</g>
<g>
</g>
<g>
</g>
<g>
</g>
<g>
</g>
<g>
</g>
<g>
</g>
<g>
</g>
<g>
</g>
<g>
</g>
<g>
</g>
<g>
</g>
<g>
</g>
<g>
</g>
</svg>
