<?xml version="1.0"?>
<svg xmlns="http://www.w3.org/2000/svg" height="512px" viewBox="0 0 480 480.00507" width="512px"><path d="m392.003906 24.003906h-304v-16c0-3.230468-1.945312-6.160156-4.933594-7.390625-2.992187-1.25-6.433593-.550781-8.722656 1.734375l-72 72c-3.128906 3.128906-3.128906 8.183594 0 11.3125l72 72c2.296875 2.296875 5.738282 2.992188 8.722656 1.738282 2.988282-1.234376 4.933594-4.160157 4.933594-7.394532v-16h304c13.234375 0 24 10.769532 24 24v104c0 13.234375-10.765625 24-24 24h-40v-72c0-4.421875-3.574218-8-8-8h-336c-4.421875 0-7.99999975 3.578125-7.99999975 8v256c0 4.425782 3.57812475 8 7.99999975 8h336c4.425782 0 8-3.574218 8-8v-136h40c48.519532 0 88-39.480468 88-88v-136c0-48.519531-39.480468-88-88-88zm-376 392h320v16h-320zm0-55.277344c20.054688 3.382813 35.886719 19.222657 39.28125 39.277344h-39.28125zm320-32.722656v16.554688c-28.894531 3.621094-51.816406 26.550781-55.449218 55.445312h-209.101563c-3.632813-28.894531-26.550781-51.816406-55.449219-55.445312v-65.113282c28.898438-3.625 51.816406-26.550781 55.449219-55.449218h209.113281c3.621094 28.898437 26.550782 51.816406 55.445313 55.449218v48.558594zm0 32.722656v39.277344h-39.28125c3.394532-20.054687 19.226563-35.886718 39.28125-39.277344zm0-97.441406c-20.054687-3.382812-35.886718-19.222656-39.28125-39.28125h39.28125zm-280.71875-39.28125c-3.394531 20.058594-19.226562 35.890625-39.28125 39.28125v-39.28125zm-39.28125 240v-16h320v16zm448-216c0 39.707032-32.296875 72-72 72h-40v-16h40c22.054688 0 40-17.941406 40-40v-104c0-22.054687-17.945312-40-40-40h-312c-4.421875 0-8 3.578125-8 8v4.6875l-52.6875-52.6875 52.6875-52.6875v4.6875c0 4.425782 3.578125 8 8 8h312c39.703125 0 72 32.296875 72 72zm0 0" fill="#FFFFFF"/><path d="m176.003906 256.003906c-30.871094 0-56 25.128906-56 56 0 30.875 25.128906 56 56 56s56-25.125 56-56c0-30.871094-25.128906-56-56-56zm0 96c-22.054687 0-40-17.941406-40-40 0-22.054687 17.945313-40 40-40 22.054688 0 40 17.945313 40 40 0 22.058594-17.945312 40-40 40zm0 0" fill="#FFFFFF"/><path d="m264.003906 304.003906h16v16h-16zm0 0" fill="#FFFFFF"/><path d="m72.003906 304.003906h16v16h-16zm0 0" fill="#FFFFFF"/><path d="m88.003906 56.003906h72v16h-72zm0 0" fill="#FFFFFF"/><path d="m176.003906 56.003906h16v16h-16zm0 0" fill="#FFFFFF"/><path d="m208.003906 56.003906h16v16h-16zm0 0" fill="#FFFFFF"/><path d="m240.003906 56.003906h16v16h-16zm0 0" fill="#FFFFFF"/></svg>
